<svg width="20" height="20" viewBox="0 0 20 20" fill="none" xmlns="http://www.w3.org/2000/svg">
<path fill-rule="evenodd" clip-rule="evenodd" d="M3.33328 8.33325C3.03859 8.33325 2.75598 8.45032 2.54761 8.65869C2.33923 8.86706 2.22217 9.14968 2.22217 9.44436V10.5555C2.22217 10.8502 2.33923 11.1328 2.54761 11.3411C2.75598 11.5495 3.03859 11.6666 3.33328 11.6666H4.44439C4.73907 11.6666 5.02169 11.5495 5.23006 11.3411C5.43844 11.1328 5.5555 10.8502 5.5555 10.5555V9.44436C5.5555 9.14968 5.43844 8.86706 5.23006 8.65869C5.02169 8.45032 4.73907 8.33325 4.44439 8.33325H3.33328ZM3.33328 9.44436V10.5555H4.44439V9.44436H3.33328ZM6.66661 9.44436C6.66661 9.14968 6.78368 8.86706 6.99205 8.65869C7.20042 8.45032 7.48304 8.33325 7.77772 8.33325H8.88883C9.18352 8.33325 9.46613 8.45032 9.67451 8.65869C9.88288 8.86706 9.99995 9.14968 9.99995 9.44436V10.5555C9.99995 10.8502 9.88288 11.1328 9.67451 11.3411C9.46613 11.5495 9.18352 11.6666 8.88883 11.6666H7.77772C7.48304 11.6666 7.20042 11.5495 6.99205 11.3411C6.78368 11.1328 6.66661 10.8502 6.66661 10.5555V9.44436ZM7.77772 9.44436H8.88883V10.5555H7.77772V9.44436ZM12.2222 8.33325C11.9275 8.33325 11.6449 8.45032 11.4365 8.65869C11.2281 8.86706 11.1111 9.14968 11.1111 9.44436V10.5555C11.1111 10.8502 11.2281 11.1328 11.4365 11.3411C11.6449 11.5495 11.9275 11.6666 12.2222 11.6666H13.3333C13.628 11.6666 13.9106 11.5495 14.119 11.3411C14.3273 11.1328 14.4444 10.8502 14.4444 10.5555V9.44436C14.4444 9.14968 14.3273 8.86706 14.119 8.65869C13.9106 8.45032 13.628 8.33325 13.3333 8.33325H12.2222ZM12.2222 9.44436V10.5555H13.3333V9.44436H12.2222ZM2.22217 13.8888C2.22217 13.5941 2.33923 13.3115 2.54761 13.1031C2.75598 12.8948 3.03859 12.7777 3.33328 12.7777H4.44439C4.73907 12.7777 5.02169 12.8948 5.23006 13.1031C5.43844 13.3115 5.5555 13.5941 5.5555 13.8888V14.9999C5.5555 15.2946 5.43844 15.5772 5.23006 15.7856C5.02169 15.994 4.73907 16.111 4.44439 16.111H3.33328C3.03859 16.111 2.75598 15.994 2.54761 15.7856C2.33923 15.5772 2.22217 15.2946 2.22217 14.9999V13.8888ZM4.44439 13.8888V14.9999H3.33328V13.8888H4.44439ZM7.77772 12.7777C7.48304 12.7777 7.20042 12.8948 6.99205 13.1031C6.78368 13.3115 6.66661 13.5941 6.66661 13.8888V14.9999C6.66661 15.2946 6.78368 15.5772 6.99205 15.7856C7.20042 15.994 7.48304 16.111 7.77772 16.111H8.88883C9.18352 16.111 9.46613 15.994 9.67451 15.7856C9.88288 15.5772 9.99995 15.2946 9.99995 14.9999V13.8888C9.99995 13.5941 9.88288 13.3115 9.67451 13.1031C9.46613 12.8948 9.18352 12.7777 8.88883 12.7777H7.77772ZM8.88883 13.8888H7.77772V14.9999H8.88883V13.8888Z" fill="white"/>
<path d="M16.6668 14.7223C16.6668 14.575 16.6082 14.4337 16.5041 14.3295C16.3999 14.2253 16.2586 14.1667 16.1112 14.1667C15.9639 14.1667 15.8226 14.2253 15.7184 14.3295C15.6142 14.4337 15.5557 14.575 15.5557 14.7223V16.3412L16.274 17.0595C16.3788 17.1607 16.5191 17.2167 16.6648 17.2155C16.8104 17.2142 16.9498 17.1558 17.0528 17.0528C17.1558 16.9498 17.2142 16.8104 17.2155 16.6647C17.2167 16.5191 17.1608 16.3787 17.0596 16.274L16.6668 15.8812V14.7223Z" fill="white"/>
<path fill-rule="evenodd" clip-rule="evenodd" d="M3.33333 0.555556C3.33333 0.408213 3.39186 0.266905 3.49605 0.162719C3.60024 0.0585317 3.74155 0 3.88889 0C4.03623 0 4.17754 0.0585317 4.28173 0.162719C4.38591 0.266905 4.44444 0.408213 4.44444 0.555556V3.33333C4.44444 3.48068 4.50298 3.62198 4.60716 3.72617C4.71135 3.83036 4.85266 3.88889 5 3.88889C5.14734 3.88889 5.28865 3.83036 5.39284 3.72617C5.49702 3.62198 5.55555 3.48068 5.55555 3.33333V1.66667H11.1111V0.555556C11.1111 0.408213 11.1696 0.266905 11.2738 0.162719C11.378 0.0585317 11.5193 0 11.6667 0C11.814 0 11.9553 0.0585317 12.0595 0.162719C12.1637 0.266905 12.2222 0.408213 12.2222 0.555556V3.33333C12.2222 3.48068 12.2808 3.62198 12.3849 3.72617C12.4891 3.83036 12.6304 3.88889 12.7778 3.88889C12.9251 3.88889 13.0664 3.83036 13.1706 3.72617C13.2748 3.62198 13.3333 3.48068 13.3333 3.33333V1.66667H15C15.442 1.66667 15.8659 1.84226 16.1785 2.15482C16.4911 2.46738 16.6667 2.89131 16.6667 3.33333V12.2611C17.6397 12.4018 18.5235 12.9057 19.14 13.6716C19.7565 14.4374 20.0601 15.4084 19.9897 16.3891C19.9193 17.3697 19.4802 18.2873 18.7605 18.9573C18.0409 19.6272 17.0943 19.9998 16.1111 20C15.4841 20.0005 14.8662 19.8492 14.3104 19.5589C13.7546 19.2687 13.2774 18.8482 12.9194 18.3333H1.66667C1.22464 18.3333 0.800716 18.1577 0.488155 17.8452C0.175595 17.5326 0 17.1087 0 16.6667V3.33333C0 2.89131 0.175595 2.46738 0.488155 2.15482C0.800716 1.84226 1.22464 1.66667 1.66667 1.66667H3.33333V0.555556ZM12.2222 16.1111C12.222 15.1758 12.5588 14.2717 13.1711 13.5646C13.7833 12.8575 14.6298 12.3947 15.5556 12.2611V6.66667H1.11111V16.6667C1.11111 16.814 1.16964 16.9553 1.27383 17.0595C1.37802 17.1637 1.51932 17.2222 1.66667 17.2222H12.3833C12.2762 16.8616 12.2219 16.4873 12.2222 16.1111ZM18.8889 16.1111C18.8889 16.8478 18.5962 17.5544 18.0753 18.0753C17.5544 18.5962 16.8478 18.8889 16.1111 18.8889C15.3744 18.8889 14.6679 18.5962 14.1469 18.0753C13.626 17.5544 13.3333 16.8478 13.3333 16.1111C13.3333 15.3744 13.626 14.6679 14.1469 14.1469C14.6679 13.626 15.3744 13.3333 16.1111 13.3333C16.8478 13.3333 17.5544 13.626 18.0753 14.1469C18.5962 14.6679 18.8889 15.3744 18.8889 16.1111Z" fill="white"/>
</svg>
